# xmcd
# 
# Track frame offsets:
#     150
#     26833
#     47199
#     66023
#     84920
#     108752
#     128453
#     151247
#     170454
#     190640
#     218597
#     241085
# 
# Disc length: 3565
# 
# Revision: 1
# Processed by: cddbd v1.5.2PL0 Copyright (c) Steve Scherf et al.
# Submitted via: fre:ac v1.0.17
# 
DISCID=8a0deb0c
DTITLE=Arnold Klos Trio - One To Get Her
DYEAR=2003
DGENRE=Jazz
TTITLE0=One to Get Her
TTITLE1=How Insensitive
TTITLE2=How My Heart Sings
TTITLE3=Oh Mathilda
TTITLE4=The Two Lonely People
TTITLE5=Peri's Scope
TTITLE6=B Minor Waltz
TTITLE7=Walkin' Up
TTITLE8=Windows
TTITLE9=We'll be Together Again
TTITLE10=Solar
TTITLE11=I Thought About You
EXTD=YEAR: 2003
EXTT0=
EXTT1=
EXTT2=
EXTT3=
EXTT4=
EXTT5=
EXTT6=
EXTT7=
EXTT8=
EXTT9=
EXTT10=
EXTT11=
PLAYORDER=
